<svg width="14" height="14" viewBox="0 0 14 14" fill="none" xmlns="http://www.w3.org/2000/svg">
<path d="M6.7334 0.5C8.45731 0.5 10.1106 1.18482 11.3296 2.40381C12.5486 3.62279 13.2334 5.27609 13.2334 7C13.2334 8.72391 12.5486 10.3772 11.3296 11.5962C10.1106 12.8152 8.45731 13.5 6.7334 13.5C5.00949 13.5 3.35619 12.8152 2.1372 11.5962C0.918218 10.3772 0.233398 8.72391 0.233398 7C0.233398 5.27609 0.918218 3.62279 2.1372 2.40381C3.35619 1.18482 5.00949 0.5 6.7334 0.5ZM6.7334 1.3125C5.98651 1.3125 5.24693 1.45961 4.55689 1.74544C3.86685 2.03126 3.23986 2.4502 2.71173 2.97833C2.1836 3.50646 1.76466 4.13345 1.47883 4.82349C1.19301 5.51353 1.0459 6.25311 1.0459 7C1.0459 7.74689 1.19301 8.48647 1.47883 9.17651C1.76466 9.86655 2.1836 10.4935 2.71173 11.0217C3.23986 11.5498 3.86685 11.9687 4.55689 12.2546C5.24693 12.5404 5.98651 12.6875 6.7334 12.6875C8.24182 12.6875 9.68845 12.0883 10.7551 11.0217C11.8217 9.95506 12.4209 8.50842 12.4209 7C12.4209 5.49158 11.8217 4.04494 10.7551 2.97833C9.68845 1.91172 8.24182 1.3125 6.7334 1.3125ZM4.42184 8.97194C5.00912 9.56321 5.80061 9.90704 6.63358 9.93273C7.46656 9.95842 8.27773 9.66402 8.90034 9.11006L9.04496 8.97194C9.11634 8.8994 9.21235 8.85629 9.31399 8.85115C9.41563 8.846 9.5155 8.87919 9.59384 8.94415C9.67218 9.00911 9.72329 9.10111 9.73705 9.20195C9.75081 9.30278 9.72622 9.40511 9.66815 9.48869L9.62184 9.54556L9.60315 9.56344C9.22385 9.94033 8.77403 10.2388 8.27936 10.4418C7.7847 10.6449 7.25489 10.7485 6.72018 10.7468C6.18548 10.745 5.65635 10.638 5.16302 10.4317C4.66968 10.2255 4.22181 9.92409 3.84496 9.54475C3.769 9.46825 3.72654 9.36471 3.72692 9.25691C3.7273 9.1491 3.77049 9.04587 3.84699 8.96991C3.92349 8.89395 4.02703 8.85149 4.13483 8.85187C4.24264 8.85225 4.34588 8.89544 4.42184 8.97194ZM8.76465 4.96875C8.98014 4.96875 9.1868 5.05435 9.33917 5.20673C9.49155 5.3591 9.57715 5.56576 9.57715 5.78125C9.57715 5.99674 9.49155 6.2034 9.33917 6.35577C9.1868 6.50815 8.98014 6.59375 8.76465 6.59375C8.54916 6.59375 8.3425 6.50815 8.19012 6.35577C8.03775 6.2034 7.95215 5.99674 7.95215 5.78125C7.95215 5.56576 8.03775 5.3591 8.19012 5.20673C8.3425 5.05435 8.54916 4.96875 8.76465 4.96875ZM4.70215 4.96875C4.91764 4.96875 5.1243 5.05435 5.27667 5.20673C5.42905 5.3591 5.51465 5.56576 5.51465 5.78125C5.51465 5.99674 5.42905 6.2034 5.27667 6.35577C5.1243 6.50815 4.91764 6.59375 4.70215 6.59375C4.48666 6.59375 4.28 6.50815 4.12762 6.35577C3.97525 6.2034 3.88965 5.99674 3.88965 5.78125C3.88965 5.56576 3.97525 5.3591 4.12762 5.20673C4.28 5.05435 4.48666 4.96875 4.70215 4.96875Z" fill="#8C8C8C"/>
</svg>
