<svg width="13" height="12" viewBox="0 0 13 12" fill="none" xmlns="http://www.w3.org/2000/svg">
<path d="M12.4755 4.84937L12.4711 4.84747L0.903314 0.0494825C0.806016 0.00875845 0.700141 -0.00721302 0.595159 0.00299678C0.490178 0.0132066 0.389364 0.0492793 0.301737 0.107988C0.209156 0.168652 0.133109 0.251381 0.0804382 0.348732C0.0277677 0.446082 0.000125975 0.555 1.47892e-07 0.665686V3.73424C5.15928e-05 3.88556 0.0528877 4.03212 0.149402 4.14865C0.245916 4.26519 0.380061 4.34441 0.528716 4.37266L6.83783 5.53925C6.86262 5.54395 6.88499 5.55715 6.90109 5.57658C6.91718 5.59602 6.92599 5.62046 6.92599 5.64569C6.92599 5.67093 6.91718 5.69537 6.90109 5.7148C6.88499 5.73424 6.86262 5.74744 6.83783 5.75214L0.528987 6.91873C0.380373 6.9469 0.246236 7.02602 0.149679 7.14245C0.0531214 7.25888 0.000189607 7.40534 1.47892e-07 7.5566V10.6257C-7.17858e-05 10.7314 0.0260984 10.8354 0.0761622 10.9285C0.126226 11.0216 0.198617 11.1008 0.286839 11.159C0.392962 11.2295 0.517504 11.2672 0.644915 11.2674C0.733491 11.2673 0.821159 11.2495 0.902772 11.2151L12.4703 6.44446L12.4755 6.44202C12.6312 6.3751 12.7639 6.264 12.8571 6.12247C12.9503 5.98093 13 5.81517 13 5.64569C13 5.47621 12.9503 5.31045 12.8571 5.16892C12.7639 5.02738 12.6312 4.91629 12.4755 4.84937Z" fill="#8C8C8C"/>
</svg>
