<svg width="14" height="20" viewBox="0 0 14 20" fill="none" xmlns="http://www.w3.org/2000/svg">
<path d="M13.9995 7.00046C13.9996 5.65871 13.6141 4.34519 12.8889 3.21633C12.1637 2.08746 11.1293 1.19082 9.90891 0.633175C8.68853 0.0755331 7.33359 -0.11961 6.00544 0.0709846C4.6773 0.261579 3.43192 0.82988 2.4176 1.70821C1.40329 2.58654 0.662793 3.73789 0.284289 5.02515C-0.0942149 6.3124 -0.0947733 7.68132 0.28268 8.96889C0.660133 10.2565 1.39969 11.4084 2.41329 12.2876C3.42688 13.1667 4.6718 13.736 5.99979 13.9277V15.3335H3.66654C3.40133 15.3335 3.14698 15.4389 2.95946 15.6264C2.77193 15.8139 2.66657 16.0683 2.66657 16.3335C2.66657 16.5987 2.77193 16.853 2.95946 17.0405C3.14698 17.2281 3.40133 17.3334 3.66654 17.3334H5.99979V19C5.99979 19.2652 6.10514 19.5196 6.29267 19.7071C6.4802 19.8946 6.73455 20 6.99975 20C7.26496 20 7.5193 19.8946 7.70683 19.7071C7.89436 19.5196 7.99972 19.2652 7.99972 19V17.3334H10.333C10.5982 17.3334 10.8525 17.2281 11.04 17.0405C11.2276 16.853 11.3329 16.5987 11.3329 16.3335C11.3329 16.0683 11.2276 15.8139 11.04 15.6264C10.8525 15.4389 10.5982 15.3335 10.333 15.3335H7.99972V13.9277C9.66467 13.6853 11.1869 12.8521 12.2884 11.5803C13.3899 10.3085 13.9973 8.68296 13.9995 7.00046ZM1.99993 7.00046C1.99993 6.01159 2.29316 5.04492 2.84255 4.22271C3.39194 3.40049 4.1728 2.75965 5.0864 2.38123C6 2.0028 7.0053 1.90379 7.97517 2.09671C8.94504 2.28963 9.83592 2.76581 10.5352 3.46505C11.2344 4.16429 11.7106 5.05517 11.9035 6.02504C12.0964 6.99491 11.9974 8.00021 11.619 8.91381C11.2406 9.82741 10.5997 10.6083 9.77751 11.1577C8.95529 11.707 7.98862 12.0003 6.99975 12.0003C5.67419 11.9987 4.40336 11.4715 3.46605 10.5342C2.52873 9.59685 2.00147 8.32602 1.99993 7.00046Z" fill="#7036F1"/>
</svg>