<svg width="13" height="18" viewBox="0 0 13 18" fill="none" xmlns="http://www.w3.org/2000/svg">
<path d="M2.80483 3.85728C2.80483 2.94797 3.16605 2.0759 3.80903 1.43292C4.45201 0.789934 5.32408 0.428711 6.2334 0.428711C7.14271 0.428711 8.01478 0.789934 8.65776 1.43292C9.30075 2.0759 9.66197 2.94797 9.66197 3.85728V9.00014C9.66197 9.90945 9.30075 10.7815 8.65776 11.4245C8.01478 12.0675 7.14271 12.4287 6.2334 12.4287C5.32408 12.4287 4.45201 12.0675 3.80903 11.4245C3.16605 10.7815 2.80483 9.90945 2.80483 9.00014V3.85728ZM6.2334 1.50014C5.60825 1.50014 5.0087 1.74848 4.56665 2.19053C4.1246 2.63258 3.87626 3.23213 3.87626 3.85728V9.00014C3.87626 9.62529 4.1246 10.2248 4.56665 10.6669C5.0087 11.1089 5.60825 11.3573 6.2334 11.3573C6.85855 11.3573 7.4581 11.1089 7.90015 10.6669C8.3422 10.2248 8.59054 9.62529 8.59054 9.00014V3.85728C8.59054 3.23213 8.3422 2.63258 7.90015 2.19053C7.4581 1.74848 6.85855 1.50014 6.2334 1.50014ZM6.66197 14.878C9.77554 14.6581 12.2334 12.0623 12.2334 8.893C12.2334 8.75092 12.177 8.61465 12.0765 8.51419C11.976 8.41372 11.8398 8.35728 11.6977 8.35728C11.5556 8.35728 11.4193 8.41372 11.3189 8.51419C11.2184 8.61465 11.162 8.75092 11.162 8.893C11.162 11.6149 8.95526 13.8216 6.2334 13.8216C3.51154 13.8216 1.30483 11.6149 1.30483 8.893C1.30483 8.75092 1.24839 8.61465 1.14792 8.51419C1.04745 8.41372 0.911193 8.35728 0.769113 8.35728C0.627032 8.35728 0.490771 8.41372 0.390306 8.51419C0.28984 8.61465 0.233398 8.75092 0.233398 8.893C0.233398 11.9894 2.57897 14.5381 5.59054 14.8587V17.0359C5.59054 17.1779 5.64698 17.3142 5.74745 17.4147C5.84791 17.5151 5.98418 17.5716 6.12626 17.5716C6.26834 17.5716 6.4046 17.5151 6.50506 17.4147C6.60553 17.3142 6.66197 17.1779 6.66197 17.0359V14.878Z" fill="#8C8C8C"/>
</svg>
