<?xml version="1.0" standalone="no"?>
<!DOCTYPE svg PUBLIC "-//W3C//DTD SVG 20010904//EN"
 "http://www.w3.org/TR/2001/REC-SVG-20010904/DTD/svg10.dtd">
<svg version="1.0" xmlns="http://www.w3.org/2000/svg"
 width="640.000000pt" height="427.000000pt" viewBox="0 0 640.000000 427.000000"
 preserveAspectRatio="xMidYMid meet">

<g transform="translate(0.000000,427.000000) scale(0.100000,-0.100000)"
fill="#000000" stroke="none">
<path d="M0 3450 l0 -820 3200 0 3200 0 0 165 0 165 -1970 0 -1970 0 2 163 3
162 1967 3 1968 2 0 160 0 160 -1967 2 -1968 3 -3 163 -2 162 1970 0 1970 0 0
165 0 165 -3200 0 -3200 0 0 -820z m360 646 l23 -75 89 -3 89 -3 -70 -50 c-39
-27 -71 -53 -71 -56 0 -3 11 -39 25 -79 14 -40 23 -75 21 -77 -2 -3 -32 16
-66 41 -34 25 -67 46 -74 46 -6 0 -38 -21 -71 -46 -33 -25 -61 -41 -62 -37 -2
5 8 42 22 83 14 40 24 74 22 75 -1 1 -33 24 -70 51 l-69 49 89 3 89 3 23 79
c13 44 26 78 30 75 4 -2 18 -38 31 -79z m1805 4 l27 -80 84 0 c46 0 84 -3 84
-7 0 -5 -30 -28 -66 -52 -73 -49 -73 -49 -33 -155 10 -28 17 -52 15 -54 -2 -2
-33 17 -67 42 -35 25 -67 46 -72 46 -4 0 -38 -21 -74 -47 l-65 -46 7 34 c4 19
15 56 25 82 l18 48 -71 52 -72 52 89 5 90 5 25 78 c14 42 26 77 27 77 1 0 14
-36 29 -80z m-735 -26 c288 -90 478 -369 457 -669 -33 -468 -528 -752 -947
-543 -67 33 -103 61 -170 128 -135 135 -192 273 -192 465 2 439 431 751 852
619z m-1070 -962 l25 -77 88 -3 89 -3 -71 -50 c-39 -27 -71 -51 -71 -52 0 -1
11 -38 25 -81 14 -44 24 -81 22 -82 -1 -1 -33 20 -70 48 l-68 49 -70 -50 c-38
-28 -69 -48 -69 -44 0 3 10 38 22 77 12 39 22 74 23 78 0 4 -31 30 -68 57
l-68 50 87 3 88 3 25 78 c14 42 28 77 31 77 3 0 16 -35 30 -78z m1810 -6 l23
-75 85 -3 84 -3 -66 -47 c-36 -27 -66 -52 -66 -56 0 -5 11 -42 25 -82 14 -40
24 -75 22 -76 -1 -2 -33 20 -71 47 l-68 50 -54 -38 c-30 -21 -63 -44 -74 -52
-18 -12 -17 -5 9 72 l29 85 -70 49 -71 48 88 5 89 5 23 78 c13 43 27 76 31 73
5 -3 19 -39 32 -80z"/>
<path d="M946 3823 c-16 -8 -31 -24 -33 -34 -3 -11 -15 -22 -27 -25 -22 -5
-73 -70 -63 -80 3 -4 -3 -15 -13 -26 -10 -11 -16 -26 -14 -33 3 -7 -2 -19 -10
-28 -9 -9 -16 -18 -16 -22 0 -21 -61 -90 -101 -115 -27 -16 -49 -31 -49 -32 0
-2 32 -3 70 -3 39 0 70 3 70 6 0 13 122 -17 172 -42 10 -5 40 -9 66 -9 62 0
101 -32 103 -82 2 -49 2 -50 27 -90 16 -25 21 -44 16 -62 -6 -25 -5 -26 45
-26 50 0 51 0 51 -31 0 -26 2 -29 14 -20 11 10 19 7 35 -10 l21 -23 38 40 c79
82 161 143 195 144 9 0 26 9 37 20 20 20 62 20 85 -1 14 -14 35 -11 35 6 0 7
-7 18 -16 23 -14 8 -12 10 10 16 14 3 26 11 26 16 0 6 10 10 22 10 16 0 19 3
11 11 -17 17 5 56 36 64 56 14 64 45 11 45 -15 0 -30 6 -33 14 -6 15 -41 11
-65 -7 -7 -6 -25 -11 -40 -13 -15 -1 -31 -2 -35 -3 -5 -1 -6 -5 -3 -10 7 -11
-18 -21 -55 -21 -26 0 -34 9 -30 33 1 5 -10 18 -24 29 -15 11 -22 25 -18 31 4
7 6 25 4 40 -1 15 3 34 9 42 19 23 4 47 -27 43 -24 -3 -30 2 -40 32 -7 19 -10
47 -7 61 3 16 -1 31 -10 38 -8 7 -12 19 -9 27 13 34 -53 56 -98 33 -9 -5 -21
-3 -27 3 -8 8 -12 8 -12 1 0 -6 -18 -13 -40 -17 -32 -5 -40 -10 -41 -29 -1
-21 -2 -19 -15 23 -4 12 -7 12 -13 1 -11 -18 -34 -3 -28 18 2 10 -2 17 -12 18
-9 0 -40 2 -69 3 -29 2 -55 7 -58 12 -7 11 -24 9 -58 -9z"/>
<path d="M0 2135 l0 -165 3200 0 3200 0 0 165 0 165 -3200 0 -3200 0 0 -165z"/>
<path d="M0 1475 l0 -165 3200 0 3200 0 0 165 0 165 -3200 0 -3200 0 0 -165z"/>
<path d="M0 820 l0 -160 3200 0 3200 0 0 160 0 160 -3200 0 -3200 0 0 -160z"/>
<path d="M0 165 l0 -165 3200 0 3200 0 0 165 0 165 -3200 0 -3200 0 0 -165z"/>
</g>
</svg>
